<?xml version="1.0" encoding="UTF-8"?>
<svg version="1.1" xmlns="http://www.w3.org/2000/svg" width="773" height="890">
<path d="M0 0 C1.96793015 0.00212242 1.96793015 0.00212242 3.97561646 0.00428772 C7.41137712 0.00804946 10.84709341 0.01782297 14.28283691 0.0289917 C17.80964559 0.03934477 21.33646166 0.04381466 24.86328125 0.04882812 C31.74480954 0.05945308 38.62630887 0.07644999 45.5078125 0.09765625 C47.02301667 6.02710587 48.23711961 11.84560469 49.0703125 17.91015625 C49.20542236 18.87791992 49.34053223 19.84568359 49.47973633 20.84277344 C50.26785521 27.15356604 50.61160942 33.36784108 50.640625 39.71875 C50.644608 40.46392883 50.648591 41.20910767 50.6526947 41.97686768 C50.65668777 42.72845154 50.66068085 43.4800354 50.66479492 44.25439453 C50.74832641 58.67980172 51.82289678 69.91341006 58.51074219 82.93310547 C70.90028957 109.82970857 68.50546519 144.98618927 58.77368164 172.13891602 C49.94661275 195.67564502 36.1712683 216.1346477 19.01171875 234.40625 C17.01762742 236.54966486 15.12618718 238.72200542 13.2578125 240.97265625 C4.51229748 251.04261225 -5.99987194 259.91921288 -16.4921875 268.09765625 C-17.20020508 268.65646484 -17.90822266 269.21527344 -18.63769531 269.79101562 C-43.57035548 289.42383248 -70.5580952 306.08837219 -98.4921875 321.09765625 C-99.44351563 321.61021973 -100.39484375 322.1227832 -101.375 322.65087891 C-125.75584749 335.71700714 -150.78067661 347.21823536 -176.4921875 357.41015625 C-177.18701233 357.68723419 -177.88183716 357.96431213 -178.59771729 358.24978638 C-185.80259875 361.11075345 -192.83966631 363.71315406 -200.4921875 365.09765625 C-196.38362637 361.51479684 -192.07050573 359.21071845 -187.2421875 356.78515625 C-168.58508964 347.17286663 -150.75832578 336.01114204 -133.4921875 324.09765625 C-132.66847656 323.53159668 -131.84476563 322.96553711 -130.99609375 322.38232422 C-120.60889377 315.23038558 -110.34627607 307.97451131 -100.4921875 300.09765625 C-99.565271 299.35781494 -99.565271 299.35781494 -98.61962891 298.60302734 C-75.61563278 280.18736829 -52.44236154 260.77715516 -33.4921875 238.09765625 C-32.71230469 237.20691406 -31.93242188 236.31617188 -31.12890625 235.3984375 C-20.12733216 222.7757503 -10.29317345 209.29963892 -1.4296875 195.09765625 C-0.90584473 194.26234375 -0.38200195 193.42703125 0.15771484 192.56640625 C3.79440649 186.62165585 6.75219501 180.49524986 9.5078125 174.09765625 C8.82976563 174.98066406 8.15171875 175.86367187 7.453125 176.7734375 C2.13180052 183.65339757 -3.30961347 190.27603806 -9.23046875 196.65234375 C-11.1826763 198.76302065 -13.06525028 200.90993182 -14.9296875 203.09765625 C-21.84184626 211.03685747 -29.47764113 218.28736814 -37.4921875 225.09765625 C-38.50747114 225.9871859 -39.52170358 226.87791611 -40.53515625 227.76953125 C-65.11679714 249.29759636 -92.96157849 267.27407167 -121.4921875 283.09765625 C-122.57113281 283.69884277 -123.65007813 284.3000293 -124.76171875 284.91943359 C-166.43040641 308.01864121 -210.36537653 325.96923369 -255.4921875 341.09765625 C-256.13353638 341.31359436 -256.77488525 341.52953247 -257.43566895 341.75201416 C-276.60250945 348.20247739 -295.99456475 353.75356635 -315.4921875 359.09765625 C-312.15685829 363.66372901 -308.7834844 368.0064045 -304.8671875 372.09765625 C-246.89050292 435.36070519 -232.60081772 526.47823688 -235.6328125 609.21728516 C-239.07956665 688.05199436 -258.60807358 765.71890327 -305.4921875 889.09765625 C-306.7823881 885.49026383 -306.18489825 883.37936635 -304.9375 879.8125 C-304.57462891 878.74362549 -304.21175781 877.67475098 -303.83789062 876.57348633 C-303.23364258 874.82201294 -303.23364258 874.82201294 -302.6171875 873.03515625 C-281.27246004 808.74547379 -269.3493614 739.46569262 -266.83325195 671.81738281 C-266.80191162 671.01913086 -266.77057129 670.22087891 -266.73828125 669.3984375 C-266.70238892 668.36456909 -266.70238892 668.36456909 -266.66577148 667.30981445 C-266.44824243 664.5376193 -265.97776094 661.83423566 -265.4921875 659.09765625 C-266.56098145 658.87271484 -267.62977539 658.64777344 -268.73095703 658.41601562 C-280.41129532 655.91447195 -291.8910181 652.90437173 -303.3671875 649.59765625 C-304.26926941 649.33887695 -305.17135132 649.08009766 -306.10076904 648.81347656 C-394.76767411 623.30977679 -485.16589424 586.65470468 -560.4921875 522.09765625 C-561.40484375 521.29714844 -562.3175 520.49664063 -563.2578125 519.671875 C-576.80812227 507.50309123 -590.59160488 494.73926722 -601.4921875 480.09765625 C-602.32899159 479.01268481 -603.16626254 477.92807335 -604.00390625 476.84375 C-626.59728229 447.21034981 -643.01620337 413.1796772 -648.4921875 376.09765625 C-648.66355225 374.96384521 -648.66355225 374.96384521 -648.83837891 373.80712891 C-652.558369 348.03173085 -650.97243078 321.50445807 -645.4921875 296.09765625 C-563.20213624 292.35874088 -475.97458174 303.19508341 -404.4921875 347.09765625 C-404.1621875 343.46765625 -403.8321875 339.83765625 -403.4921875 336.09765625 C-405.1421875 335.43765625 -406.7921875 334.77765625 -408.4921875 334.09765625 C-409.89627991 333.16068408 -411.26976512 332.17693808 -412.6171875 331.16015625 C-420.52590868 325.51274349 -429.01989677 320.83569095 -437.4921875 316.09765625 C-438.25176758 315.67049316 -439.01134766 315.24333008 -439.79394531 314.80322266 C-504.16461815 278.88095935 -578.04444962 266.65264594 -650.4921875 260.09765625 C-650.4921875 259.76765625 -650.4921875 259.43765625 -650.4921875 259.09765625 C-594.89144107 258.43314623 -539.93871055 261.11099132 -485.4921875 273.09765625 C-483.75316162 273.47978271 -483.75316162 273.47978271 -481.97900391 273.86962891 C-455.01628499 279.92589375 -428.59993626 288.52923959 -403.4921875 300.09765625 C-402.11780672 297.34889469 -402.03429485 294.80404931 -401.6953125 291.74609375 C-401.54324023 290.41862328 -401.39045934 289.09123385 -401.23706055 287.76391602 C-401.15692719 287.06436798 -401.07679382 286.36481995 -400.99423218 285.64407349 C-392.50022833 212.46646655 -362.51065941 142.12846775 -304.8671875 94.22265625 C-303.08533044 92.83496757 -301.292911 91.46077376 -299.4921875 90.09765625 C-298.33009999 89.18439378 -297.16868929 88.27026971 -296.0078125 87.35546875 C-246.62230128 48.89315369 -186.31803833 30.49442278 -125.68774414 18.97875977 C-117.97857982 17.48434046 -110.39604528 15.59260947 -102.79714966 13.62805176 C-69.29165843 4.9801251 -34.65064856 -0.1442077 0 0 Z M-274.4921875 120.09765625 C-327.21715585 176.37501608 -356.31855692 243.06164047 -368.4921875 319.09765625 C-365.39203636 321.24933691 -362.28640938 323.39297618 -359.1796875 325.53515625 C-357.85807617 326.45264648 -357.85807617 326.45264648 -356.50976562 327.38867188 C-355.66220703 327.97197266 -354.81464844 328.55527344 -353.94140625 329.15625 C-353.16112061 329.69564209 -352.38083496 330.23503418 -351.5769043 330.79077148 C-349.43466957 332.24791735 -349.43466957 332.24791735 -346.4921875 333.09765625 C-346.39719971 332.12868408 -346.30221191 331.15971191 -346.2043457 330.16137695 C-338.63706711 253.70834897 -318.95301444 183.36929692 -272.4921875 121.09765625 C-273.4821875 120.60265625 -273.4821875 120.60265625 -274.4921875 120.09765625 Z M11.5078125 169.09765625 C12.5078125 171.09765625 12.5078125 171.09765625 12.5078125 171.09765625 Z M-372.4921875 362.09765625 C-373.12165305 365.70277715 -373.4335336 367.63728903 -372.4921875 371.09765625 C-370.02142353 373.74204147 -367.36293488 375.7552291 -364.44921875 377.8984375 C-361.76251208 379.89660904 -359.50088041 381.94533427 -357.1796875 384.34765625 C-354.98752613 386.61110742 -352.88222446 388.59558526 -350.4296875 390.59765625 C-347.43173223 393.14910754 -344.98485088 395.84098484 -342.4375 398.828125 C-340.18459812 401.45651052 -337.87388469 404.02763679 -335.5546875 406.59765625 C-334.78253906 407.45359375 -334.01039063 408.30953125 -333.21484375 409.19140625 C-332.36212891 410.135 -332.36212891 410.135 -331.4921875 411.09765625 C-331.4921875 407.09960979 -333.41740022 405.21462264 -335.8046875 402.22265625 C-336.25400635 401.65039307 -336.7033252 401.07812988 -337.16625977 400.48852539 C-347.7224836 387.13945658 -358.88094463 373.56242249 -371.4921875 362.09765625 C-371.8221875 362.09765625 -372.1521875 362.09765625 -372.4921875 362.09765625 Z M-330.4921875 411.09765625 C-330.1621875 412.08765625 -329.8321875 413.07765625 -329.4921875 414.09765625 C-329.4921875 413.10765625 -329.4921875 412.11765625 -329.4921875 411.09765625 C-329.8221875 411.09765625 -330.1521875 411.09765625 -330.4921875 411.09765625 Z " fill="#32A748" transform="translate(706.4921875,0.90234375)"/>
<path d="M0 0 C0 0.33 0 0.66 0 1 C-1.20084229 1.09498779 -2.40168457 1.18997559 -3.63891602 1.2878418 C-27.9548453 3.2327986 -52.01591046 5.43959569 -76 10 C-77.06895508 10.20238281 -78.13791016 10.40476562 -79.23925781 10.61328125 C-131.22842804 20.62672814 -183.11303298 37.297482 -228 66 C-228.99128906 66.62390625 -229.98257812 67.2478125 -231.00390625 67.890625 C-247.48129952 78.56169874 -262.69275382 90.42864313 -276.42578125 104.4609375 C-278.05087317 106.04973705 -279.747803 107.49087378 -281.5 108.9375 C-284.69644521 111.63073544 -287.37448207 114.58101322 -290.07421875 117.765625 C-292.19192394 120.22267849 -294.40605319 122.57157933 -296.625 124.9375 C-342.39228316 175.22586736 -365.42272882 241.93478197 -376 308 C-375.50185791 308.32162109 -375.00371582 308.64324219 -374.49047852 308.97460938 C-357.50174559 319.99008102 -357.50174559 319.99008102 -351.0546875 326.0859375 C-348.69044801 328.28836592 -346.20837281 330.29151699 -343.6875 332.3125 C-335.72205765 338.77671974 -328.24112993 345.73528333 -321 353 C-320.34 353.61359375 -319.68 354.2271875 -319 354.859375 C-270.41964626 400.78299064 -249.31057372 475.60348601 -245 540 C-244.91387451 541.24233398 -244.82774902 542.48466797 -244.73901367 543.76464844 C-244.05783371 554.05585813 -243.79775166 564.31249571 -243.8125 574.625 C-243.81310425 575.41991852 -243.8137085 576.21483704 -243.81433105 577.03384399 C-243.97584371 656.34345217 -261.89347159 734.65665935 -314 878 C-315.2902006 874.39260758 -314.69271075 872.2817101 -313.4453125 868.71484375 C-313.08244141 867.64596924 -312.71957031 866.57709473 -312.34570312 865.47583008 C-311.74145508 863.72435669 -311.74145508 863.72435669 -311.125 861.9375 C-286.31097212 787.19838817 -274.79167561 706.90704592 -274.75 628.3125 C-274.74932526 627.15457947 -274.74865051 625.99665894 -274.74795532 624.8036499 C-274.79138687 577.58341085 -281.25250826 530.9798498 -296 486 C-296.26361328 485.1754834 -296.52722656 484.3509668 -296.79882812 483.50146484 C-308.42809738 447.28022582 -326.86900054 413.42218206 -351 384 C-351.43086914 383.47438477 -351.86173828 382.94876953 -352.30566406 382.40722656 C-361.0291398 371.81488255 -370.18610455 361.59580888 -380 352 C-380.71640266 356.52013048 -381.1290942 360.86565258 -381.14526367 365.44067383 C-381.15164352 366.67759476 -381.15802338 367.91451569 -381.16459656 369.18891907 C-381.1661285 370.52828939 -381.16724071 371.86766025 -381.16796875 373.20703125 C-381.1711934 374.61447684 -381.17455831 376.02192212 -381.17805481 377.42936707 C-381.1840327 380.38561778 -381.18589679 383.34183937 -381.18530273 386.2980957 C-381.18522245 389.2737448 -381.19200661 392.24923676 -381.20581055 395.22485352 C-381.32155185 420.59583889 -379.94140586 445.57222615 -376.6875 470.75 C-376.57984314 471.59508118 -376.47218628 472.44016235 -376.36126709 473.31085205 C-374.32076988 489.28140172 -371.94638699 505.16835726 -369 521 C-368.76087891 522.28874023 -368.52175781 523.57748047 -368.27539062 524.90527344 C-362.70248025 554.59980385 -355.76480946 584.48841945 -345.84179688 613.05175781 C-343.90292681 618.70878043 -343.90292681 618.70878043 -345 622 C-357.05128452 593.10650814 -367.57236438 563.86486466 -377.06163025 534.0406189 C-378.3962444 529.85318308 -379.7759477 525.68444889 -381.19140625 521.5234375 C-382.88149363 516.48291676 -384.26263926 511.41829588 -385.5 506.25 C-385.92703169 504.50519569 -386.35411563 502.76040417 -386.78125 501.015625 C-386.9875 500.16548828 -387.19375 499.31535156 -387.40625 498.43945312 C-388.25425176 494.95539328 -389.12700833 491.47788618 -390 488 C-390.15927979 487.35812744 -390.31855957 486.71625488 -390.48266602 486.05493164 C-391.35729183 482.53333165 -392.25557346 479.01965041 -393.18359375 475.51171875 C-396.55223724 462.64360655 -399.07948348 449.6816017 -401.37060547 436.58154297 C-401.99436191 433.03208331 -402.63931819 429.48690539 -403.28515625 425.94140625 C-409.24904378 392.50687238 -412.12313366 358.96094818 -412 325 C-412.78358887 324.69763428 -413.56717773 324.39526855 -414.37451172 324.08374023 C-417.00049356 322.99979627 -418.86494263 321.76796765 -421.125 320.0625 C-429.03372118 314.41508724 -437.52770927 309.7380347 -446 305 C-446.75958008 304.57283691 -447.51916016 304.14567383 -448.30175781 303.70556641 C-512.67243065 267.7833031 -586.55226212 255.55498969 -659 249 C-659 248.67 -659 248.34 -659 248 C-603.39925357 247.33548998 -548.44652305 250.01333507 -494 262 C-492.26097412 262.38212646 -492.26097412 262.38212646 -490.48681641 262.77197266 C-463.52409749 268.8282375 -437.10774876 277.43158334 -412 289 C-410.62561922 286.25123844 -410.54210735 283.70639306 -410.203125 280.6484375 C-410.05105273 279.32096703 -409.89827184 277.9935776 -409.74487305 276.66625977 C-409.66473969 275.96671173 -409.58460632 275.2671637 -409.50204468 274.54641724 C-401.00804083 201.3688103 -371.01847191 131.0308115 -313.375 83.125 C-311.59314294 81.73731132 -309.8007235 80.36311751 -308 79 C-306.83791249 78.08673753 -305.67650179 77.17261346 -304.515625 76.2578125 C-264.66346624 45.220242 -216.65268466 26.408125 -167.8125 14.9375 C-166.65050079 14.66436478 -166.65050079 14.66436478 -165.46502686 14.38571167 C-149.17909778 10.59545203 -132.8626569 7.80831391 -116.25 5.9375 C-114.74851999 5.76526888 -113.24705535 5.59290375 -111.74560547 5.42041016 C-101.38137306 4.23727284 -91.01550142 3.09506316 -80.61962891 2.2265625 C-78.81626266 2.07059569 -77.01385468 1.90326828 -75.21240234 1.7265625 C-50.19896371 -0.72386869 -25.10296083 -0.19759408 0 0 Z " fill="#229045" transform="translate(715,12)"/>
<path d="M0 0 C1.11548937 3.3464681 0.89530622 4.10813388 -0.109375 7.359375 C-0.36823486 8.22087158 -0.62709473 9.08236816 -0.89379883 9.9699707 C-1.17634521 10.88738037 -1.4588916 11.80479004 -1.75 12.75 C-16.78232436 63.3361345 -8.2334145 113.91959071 16.01196289 160.13183594 C25.01284165 176.73812996 35.8246901 192.55346817 48 207 C48.73500732 207.87712646 48.73500732 207.87712646 49.48486328 208.77197266 C66.99654026 229.57088097 86.0857163 248.62514516 107 266 C107.61133789 266.51095215 108.22267578 267.0219043 108.85253906 267.54833984 C139.77771497 293.32988706 173.77975028 315.42633779 209.03125 334.796875 C213.76321998 337.40621845 218.40357849 340.15899575 223 343 C221 344 221 344 218.61865234 343.32592773 C217.61785645 342.94895752 216.61706055 342.5719873 215.5859375 342.18359375 C214.44930664 341.75667236 213.31267578 341.32975098 212.14160156 340.88989258 C210.8856855 340.40675409 209.63016307 339.92259134 208.375 339.4375 C207.73397339 339.19180267 207.09294678 338.94610535 206.43249512 338.69296265 C169.74359072 324.60189496 133.97304081 307.7633172 100 288 C98.50484863 287.13060791 98.50484863 287.13060791 96.97949219 286.24365234 C72.85334765 272.10829809 48.84229031 256.29156203 28.3359375 237.16015625 C26.35135691 235.32491701 24.33234402 233.55708048 22.28515625 231.79296875 C10.96269724 221.91214841 -0.01115097 211.06722199 -9 199 C-9.79277344 197.95070313 -10.58554687 196.90140625 -11.40234375 195.8203125 C-35.01087802 164.02218209 -48.54098426 126.98973894 -42.875 87.0625 C-37.6580477 54.60425699 -21.70545877 24.51912935 0 0 Z " fill="#229044" transform="translate(45,271)"/>
<path d="M0 0 C9.8656768 9.55576025 16.99564259 21.28213684 24 33 C24.5671875 33.94617187 25.134375 34.89234375 25.71875 35.8671875 C43.14998746 66.37185305 48.84122692 103.47257854 39.72021484 137.54492188 C31.57387414 165.31427854 16.21179807 189.32349969 -3.49609375 210.30859375 C-5.49018508 212.45200861 -7.38162532 214.62434917 -9.25 216.875 C-17.99551502 226.944956 -28.50768444 235.82155663 -39 244 C-39.70801758 244.55880859 -40.41603516 245.11761719 -41.14550781 245.69335938 C-66.07816798 265.32617623 -93.0659077 281.99071594 -121 297 C-122.42699219 297.76884521 -122.42699219 297.76884521 -123.8828125 298.55322266 C-148.26365999 311.61935089 -173.28848911 323.12057911 -199 333.3125 C-199.69482483 333.58957794 -200.38964966 333.86665588 -201.10552979 334.15213013 C-208.31041125 337.0130972 -215.34747881 339.61549781 -223 341 C-218.89143887 337.41714059 -214.57831823 335.1130622 -209.75 332.6875 C-191.09290214 323.07521038 -173.26613828 311.91348579 -156 300 C-155.17628906 299.43394043 -154.35257813 298.86788086 -153.50390625 298.28466797 C-143.11670627 291.13272933 -132.85408857 283.87685506 -123 276 C-122.38205566 275.50677246 -121.76411133 275.01354492 -121.12744141 274.50537109 C-98.12344528 256.08971204 -74.95017404 236.67949891 -56 214 C-54.83017578 212.66388672 -54.83017578 212.66388672 -53.63671875 211.30078125 C-29.44195605 183.54085174 -6.41109141 149.05988958 3 113 C3.19094238 112.29133789 3.38188477 111.58267578 3.57861328 110.85253906 C7.59080961 95.7537448 9.34656324 80.89794642 9.26074219 65.31152344 C9.25000784 63.00168633 9.26071934 60.69262653 9.2734375 58.3828125 C9.28625618 45.62075664 8.00848892 33.26120668 5.0625 20.8125 C4.89137695 20.06564941 4.72025391 19.31879883 4.54394531 18.54931641 C3.11210396 12.34600374 1.59521273 6.16332192 0 0 Z " fill="#229044" transform="translate(729,25)"/>
<path d="M0 0 C3.67751983 2.31654792 7.3413407 4.65378359 11 7 C11.92554688 7.59039062 12.85109375 8.18078125 13.8046875 8.7890625 C31.42288361 20.25797133 47.5062449 33.83828719 63 48 C64.04010258 48.93518731 65.08048194 49.87006686 66.12109375 50.8046875 C73.00603067 57.02535115 79.48327129 63.46393188 85.61865234 70.43164062 C86.55211999 71.49148442 87.49007666 72.54738873 88.43212891 73.59960938 C101.74225694 88.47851043 113.06413536 104.69872465 123 122 C123.42909668 122.7429834 123.85819336 123.4859668 124.30029297 124.25146484 C134.39407317 141.94328936 148.28276767 168.02054171 147 189 C143.51295229 185.63551987 140.47898419 182.17924247 137.5625 178.3125 C136.68941839 177.16229234 135.81568191 176.01258157 134.94140625 174.86328125 C134.47234863 174.24533691 134.00329102 173.62739258 133.52001953 172.99072266 C130.70682563 169.30636945 127.85046608 165.65553899 125 162 C120.98496969 156.84472041 116.97898749 151.68315476 113 146.5 C107.30530446 139.08386871 101.55912408 131.70801416 95.81445312 124.33056641 C92.87486662 120.55482734 89.93752285 116.77734465 87 113 C85.83334461 111.49999123 84.66667793 109.99999124 83.5 108.5 C76.5 99.5 76.5 99.5 74.74926758 97.24902344 C73.58508741 95.75224357 72.4208623 94.25549866 71.2565918 92.75878906 C68.30150827 88.95980942 65.34725986 85.16018535 62.39453125 81.359375 C55.29103314 72.21734755 48.1626388 63.09575246 41 54 C34.97680306 46.35121161 28.97330971 38.68784082 23 31 C18.65514596 25.4093522 14.30663408 19.82170349 9.9375 14.25 C9.29458008 13.42822266 9.29458008 13.42822266 8.63867188 12.58984375 C6.54258932 9.92089818 4.40547001 7.30514472 2.19140625 4.734375 C0 2 0 2 0 0 Z " fill="#27803F" transform="translate(147,308)"/>
<path d="M0 0 C0.99 0.495 0.99 0.495 2 1 C-11.24262177 18.05325969 -11.24262177 18.05325969 -17.5 26 C-21.68701447 31.31760953 -25.84785574 36.65512315 -30 42 C-34.58733249 47.90507595 -39.19057168 53.79692783 -43.81640625 59.671875 C-47.56255732 64.43374633 -51.28304211 69.21531987 -55 74 C-59.15214475 79.34487747 -63.31306819 84.68232498 -67.5 90 C-73.42704178 97.52938838 -79.30550809 105.09632148 -85.18408203 112.66357422 C-87.00557308 115.00717053 -88.82868777 117.34949427 -90.65234375 119.69140625 C-96.5868339 127.31333416 -102.50493179 134.94668692 -108.38671875 142.609375 C-111.51047652 146.67038199 -114.66333987 150.70868516 -117.8125 154.75 C-122.58484345 160.87878302 -127.33851896 167.02134696 -132.0625 173.1875 C-132.58626221 173.86973633 -133.11002441 174.55197266 -133.6496582 175.25488281 C-136.09951066 178.45905383 -138.49426191 181.68457876 -140.80859375 184.98828125 C-141.53175781 185.98214844 -142.25492187 186.97601563 -143 188 C-143.33 188 -143.66 188 -144 188 C-139.00223367 144.92401399 -114.26585963 103.87445432 -85.265625 72.4765625 C-83.4079748 70.44595866 -81.60758511 68.38597326 -79.8125 66.30078125 C-75.64794838 61.53080042 -71.22854235 57.03655752 -66.75 52.5625 C-65.90808105 51.72138672 -65.06616211 50.88027344 -64.19873047 50.01367188 C-59.18359229 45.0478059 -54.14670479 40.35072899 -48.57421875 36.015625 C-46.16012393 34.12537777 -43.8441913 32.14862199 -41.53320312 30.13452148 C-28.59357328 18.90737325 -14.32192916 9.35783867 0 0 Z " fill="#27803F" transform="translate(555,114)"/>
<path d="" fill="#00FF00" transform="translate(0,0)"/>
</svg>
